<svg width="11" height="7" viewBox="0 0 11 7" fill="none" xmlns="http://www.w3.org/2000/svg">
<path d="M5.29195 4.30151L8.88575 0.707714C8.95116 0.63589 9.03031 0.577918 9.11852 0.53723C9.20673 0.496542 9.30221 0.473965 9.3993 0.470836C9.4964 0.467707 9.59313 0.484088 9.68378 0.519012C9.77443 0.553935 9.85715 0.606689 9.92704 0.674153C9.99694 0.741616 10.0526 0.822417 10.0907 0.911772C10.1288 1.00113 10.1486 1.09722 10.1489 1.19436C10.1492 1.29151 10.1301 1.38772 10.0925 1.47732C10.055 1.56692 9.99984 1.64807 9.93038 1.71598L9.91269 1.73367L5.80591 5.84143C5.66972 5.97759 5.48503 6.05408 5.29244 6.05408C5.09986 6.05408 4.91516 5.97759 4.77897 5.84143L0.6722 1.73465C0.603609 1.66839 0.548741 1.58926 0.510731 1.50178C0.472721 1.41431 0.452312 1.32021 0.450669 1.22485C0.449027 1.12949 0.466183 1.03474 0.501158 0.946007C0.536133 0.857278 0.588243 0.776305 0.654511 0.707714C0.720779 0.639123 0.799909 0.584256 0.887381 0.546246C0.974854 0.508235 1.06896 0.487826 1.16432 0.486184C1.25968 0.484541 1.35443 0.501697 1.44316 0.536672C1.53189 0.571648 1.61286 0.623757 1.68145 0.690025L1.69914 0.707714L5.29195 4.30151Z" fill="#112126" stroke="#112126" stroke-width="0.491359"/>
</svg>
