<svg width="174" height="32" viewBox="0 0 174 32" fill="none" xmlns="http://www.w3.org/2000/svg">
<path d="M173.913 24.5781H150.45V23.7827H173.913V24.5781ZM162.222 20.1242L164.449 17.9768L165.323 18.8517L162.938 20.84C162.779 21.0786 162.619 21.4763 162.46 21.7149H160.711C160.992 21.0106 161.532 20.4412 162.222 20.1242ZM154.745 6.60335C154.666 6.60335 152.916 7.08062 152.916 7.08062C152.508 7.24265 152.109 7.42857 151.723 7.63736C151.325 7.87599 150.928 8.27357 150.928 8.51221L152.518 8.90989C152.737 8.65176 152.976 8.41234 153.234 8.1941L153.632 8.03504L154.904 6.68293C154.984 6.60335 154.984 6.52387 154.705 6.60335H154.745ZM165.482 10.8982C164.514 9.84045 163.611 8.72488 162.779 7.55778C163.377 6.07098 163.596 4.45804 163.414 2.86529C163.09 2.27892 162.718 1.72029 162.301 1.19508C162.142 0.956476 161.426 0.161133 161.108 0.161133C161.029 0.161133 160.949 0.161133 160.949 0.24066L161.029 1.11554C159.994 1.75182 158.802 2.54715 157.767 3.34249C157.747 3.66281 157.774 3.98438 157.847 4.2969C158.014 4.43226 158.202 4.53969 158.404 4.61504C159.112 4.44414 159.829 4.31138 160.551 4.21737L159.2 6.20576L157.608 7.31925L155.7 6.68293C155.541 6.68293 155.461 6.68293 155.382 6.76251L153.949 8.27357C153.902 8.31147 153.862 8.35972 153.834 8.41472C153.807 8.46973 153.792 8.53021 153.791 8.59178L153.712 10.262V10.8187C153.685 11.4739 153.881 12.1186 154.268 12.648L155.143 11.2959C154.963 10.9996 154.829 10.6778 154.745 10.3415V8.90989L155.621 8.27357L158.006 9.9438C158.368 10.6192 158.795 11.2584 159.279 11.8527C160.34 12.7794 161.484 13.6049 162.699 14.3182C162.8 14.9414 162.961 15.5539 163.175 16.1475L166.039 19.0903L164.369 21.2377C164.047 21.4074 163.775 21.658 163.58 21.9648C163.384 22.2717 163.273 22.6241 163.255 22.9875H165.243L165.482 21.874L167.868 19.2493C168.028 19.0903 168.028 19.0107 167.948 18.8517L167.311 16.6247C167.916 15.9374 168.278 15.0716 168.346 14.1591C168.346 12.0117 166.198 11.455 165.482 10.8584V10.8982ZM169.061 14.3977C168.915 13.8804 168.729 13.3752 168.505 12.8866C168.505 12.8866 168.585 12.8071 168.822 12.8866C169.061 12.9661 170.255 13.841 170.255 13.841C170.89 14.7158 171.288 18.5335 171.288 19.8856C170.592 19.5943 169.946 19.1913 169.379 18.6926L169.061 14.3977ZM108.138 13.5229C108.138 12.0913 107.662 10.9778 106.468 10.9778C105.275 10.9778 104.718 12.0913 104.718 13.5229V22.9875H106.15V24.4985H98.117V22.9875H99.6282V9.9438H98.117V8.47242H104.4V10.938H104.479C104.833 10.1125 105.42 9.40874 106.169 8.91397C106.919 8.4192 107.797 8.155 108.695 8.15431C109.686 8.09492 110.664 8.40279 111.441 9.01911C112.218 9.63544 112.742 10.5169 112.911 11.4948C113.065 12.3611 113.145 13.2393 113.149 14.1194V23.0272H115.058V24.5383H108.058L108.138 13.4831M75.6089 13.4831C75.6089 12.0515 75.1316 10.938 73.9386 10.938C72.7456 10.938 72.1889 12.0515 72.1889 13.4831V22.9477H73.6205V24.4588H65.5875V22.9477H67.0987V9.9438H65.5875V8.47242H71.8707V10.938H71.9503C72.3035 10.1125 72.8912 9.40874 73.6404 8.91397C74.3897 8.4192 75.2677 8.155 76.1656 8.15431C77.1561 8.09492 78.1338 8.40279 78.9115 9.01911C79.6892 9.63544 80.2124 10.5169 80.3809 11.4948C80.5357 12.3611 80.6155 13.2393 80.6195 14.1194V23.0272H82.5283V24.5383H75.5293L75.6089 13.4831ZM121.977 9.90411V21.7546C121.965 21.8935 121.983 22.0333 122.031 22.1642C122.079 22.2952 122.154 22.4141 122.253 22.5127C122.351 22.6113 122.471 22.687 122.601 22.7347C122.732 22.7824 122.873 22.8008 123.011 22.7886C123.335 22.7805 123.656 22.7269 123.966 22.6296V24.0612C123.008 24.5492 121.937 24.769 120.863 24.6974C118.398 24.6974 116.887 23.5044 116.887 20.8798V9.9438H115.216V8.90989C117.125 7.39872 119.352 5.64902 121.102 4.21737H122.057V8.47242H124.482V9.90411H121.977ZM21.6847 0.161133C21.6847 0.161133 25.5819 4.0583 27.3316 6.04661V7.55778C25.0703 5.48893 22.1248 4.32773 19.06 4.2969C11.8225 4.2969 7.28902 9.78474 7.28902 16.5452C7.28902 23.3056 11.5839 28.7139 19.06 28.7139C20.6201 28.727 22.1663 28.4196 23.6029 27.8107C25.0394 27.202 26.3356 26.3047 27.4111 25.1746V26.6062C25.1842 29.708 21.0485 31.6964 15.8787 31.6964C6.65274 31.776 0.290009 25.0951 0.290009 16.5849C0.304511 14.5568 0.719943 12.5516 1.51241 10.6847C2.30489 8.81778 3.45874 7.12597 4.90758 5.70672C6.35641 4.28742 8.07162 3.16869 9.95453 2.41488C11.8373 1.66107 13.8507 1.28706 15.8787 1.31437C17.8526 1.32046 19.8127 1.64268 21.6847 2.26878V0.161133ZM95.731 20.2832C95.3041 20.7885 94.766 21.1878 94.1588 21.45C93.5516 21.7122 92.8919 21.8301 92.2315 21.7944C90.7998 21.7944 88.4934 20.999 88.4138 17.261H97.0036C97.0036 16.9428 97.083 16.3861 97.083 16.0679C97.083 11.5345 95.2538 8.1941 90.4022 8.1941C85.5506 8.1941 83.085 11.9322 83.085 16.5452C83.085 21.1582 85.5506 24.8167 90.4022 24.8167C91.702 24.8862 92.9932 24.568 94.1118 23.9024C95.2305 23.2369 96.1262 22.2541 96.6853 21.0786L95.731 20.2832ZM88.3343 15.6703C88.3343 11.455 88.6524 9.86432 90.084 9.86432C91.5156 9.86432 91.8338 11.3755 91.9133 15.6703H88.3343ZM17.4694 16.4656C17.4694 11.5345 17.9466 9.38706 19.6168 9.38706C21.287 9.38706 21.7643 11.5345 21.7643 16.4656C21.7643 21.3967 21.287 23.5442 19.6168 23.5442C17.9466 23.5442 17.4694 21.3967 17.4694 16.4656ZM11.5043 16.5452C11.5043 21.3967 14.4471 25.3735 19.6168 25.3735C24.7865 25.3735 27.7293 21.3967 27.7293 16.5452C27.7293 11.6936 24.7865 7.67714 19.6168 7.67714C14.4471 7.67714 11.5043 11.6538 11.5043 16.5054M39.0231 13.4831C39.0231 12.0515 38.546 10.938 37.3529 10.938C36.1599 10.938 35.6032 12.0515 35.6032 13.4831V22.9477H36.995V24.4588H29.0018V22.9477H30.513V9.9438H29.0018V8.47242H35.285V10.938H35.3646C35.7178 10.1125 36.3055 9.40874 37.0548 8.91397C37.804 8.4192 38.6819 8.155 39.5799 8.15431C40.5704 8.09492 41.5481 8.40279 42.3258 9.01911C43.1035 9.63544 43.6267 10.5169 43.7952 11.4948C43.9499 12.3611 44.0297 13.2393 44.0338 14.1194V23.0272H45.9426V24.5383H38.9437V13.5229L39.0231 13.4831ZM57.2364 4.17761C57.2364 5.60924 58.509 6.56366 60.3383 6.56366C62.1676 6.56366 63.4402 5.60924 63.4402 4.17761C63.4402 2.74599 62.1676 1.79158 60.3383 1.79158C58.509 1.79158 57.2364 2.82552 57.2364 4.17761ZM52.8621 9.90411V21.7546C52.8499 21.8935 52.8683 22.0333 52.916 22.1642C52.9636 22.2952 53.0394 22.4141 53.138 22.5127C53.2365 22.6113 53.3555 22.687 53.4865 22.7347C53.6174 22.7824 53.7572 22.8008 53.896 22.7886C54.2201 22.7805 54.5412 22.7269 54.8504 22.6296V24.0612C53.8928 24.5492 52.821 24.769 51.7486 24.6974C49.283 24.6974 47.7719 23.5044 47.7719 20.8798V9.9438H46.1017V8.90989C48.0105 7.39872 50.2374 5.64902 51.9872 4.21737H52.9019V8.47242H54.8902V9.90411H52.8621ZM146.712 23.0272H148.7V24.5383H141.622V4.0583H139.872V2.54715H146.752V23.0669L146.712 23.0272ZM133.112 16.5849C132.798 16.336 132.397 16.2216 131.998 16.2668C130.487 16.2668 130.169 17.778 130.169 19.2891C130.169 20.8002 130.646 21.9933 131.919 21.9933C132.141 22.0147 132.366 21.9826 132.573 21.8997C132.781 21.8166 132.966 21.6851 133.112 21.5161V16.5849ZM133.271 22.6296C132.815 23.3279 132.189 23.8987 131.451 24.2883C130.714 24.6779 129.889 24.8734 129.056 24.8564C126.431 24.8564 124.84 22.6296 124.84 19.9253C124.84 16.744 127.147 14.6761 130.805 14.6761C131.587 14.6483 132.367 14.7559 133.112 14.9943V13.9603C133.146 13.5653 133.093 13.1677 132.957 12.7952C132.822 12.4228 132.606 12.0846 132.325 11.8043C132.045 11.5239 131.707 11.3082 131.335 11.1724C130.962 11.0365 130.564 10.9837 130.169 11.0176C129.451 11.019 128.743 11.1932 128.107 11.5254C127.47 11.8576 126.923 12.3381 126.51 12.9263L125.636 11.8129C126.304 10.7182 127.237 9.80921 128.35 9.16991C129.462 8.53051 130.716 8.18126 131.998 8.15431C135.895 8.15431 138.202 10.4608 138.202 13.9603V23.0272H139.872V24.5383H133.351L133.271 22.6296ZM56.3616 24.5383V23.0272H57.7932V9.9438H56.3616V8.47242H62.8834V23.0272H64.3945V24.5383H56.3616Z" fill="#414141"/>
</svg>
