<svg width="81" height="74" viewBox="0 0 81 74" fill="none" xmlns="http://www.w3.org/2000/svg">
<path d="M78.5047 30.0752L65.2807 7.22538C62.8537 3.12397 58.4171 0.529297 53.6465 0.529297H27.365C22.5938 0.529297 18.1578 3.12382 15.7308 7.22538L2.50678 30.0752C0.0798022 34.1767 0.0798022 39.3659 2.50678 43.4674L15.6478 66.3173C18.0748 70.4187 22.5115 73.0134 27.282 73.0134H53.6473C58.4184 73.0134 62.8545 70.4188 65.2814 66.3173L78.5055 43.4674C80.8496 39.366 80.8496 34.1768 78.5055 30.0752H78.5047ZM73.3991 40.5376L60.2586 63.3875C58.9193 65.7311 56.4081 67.1538 53.7301 67.1538L27.3648 67.1544C24.6862 67.1544 22.1756 65.7316 20.8363 63.3881L7.61228 40.5382C6.27296 38.1946 6.27296 35.265 7.61228 32.9215L20.7533 10.0716C22.0927 7.72801 24.6038 6.30527 27.2819 6.30527H53.6471C56.3258 6.30527 58.8363 7.72808 60.1756 10.0716L73.3167 32.9215C74.7389 35.349 74.7389 38.1946 73.3996 40.5382L73.3991 40.5376Z" fill="#F0D487"/>
<path d="M45.193 37.7759H35.8189C30.9643 37.7759 27.0303 41.7097 27.0303 46.5644V52.5074H54.0651V46.5644C54.0651 41.7099 50.1313 37.7759 45.1932 37.7759H45.193Z" fill="#F0D487"/>
<path d="M48.5406 26.978C48.5406 31.4157 44.943 35.0129 40.5052 35.0129C36.0673 35.0129 32.4698 31.4159 32.4698 26.978C32.4698 22.5403 36.0673 18.9426 40.5052 18.9426C44.943 18.9426 48.5406 22.5402 48.5406 26.978Z" fill="#F0D487"/>
</svg>
