<svg width="42" height="42" viewBox="0 0 42 42" fill="none" xmlns="http://www.w3.org/2000/svg">
<path d="M21.1901 41.2592H20.5941L24.7362 29.9021H30.4138C31.4191 29.9021 32.5169 29.1478 32.8621 28.2065L37.3477 15.9083C38.07 13.9011 36.9402 12.2376 34.7748 12.2376H26.8696L16.5143 40.7272C7.6071 38.5904 0.984802 30.5891 0.984802 21.0538C0.984802 11.7981 7.22825 3.98542 15.7314 1.60118L5.44008 29.9021H9.70677L15.1656 14.8727H18.3984L12.9379 29.9021H17.2063L22.3199 15.8762C23.0406 13.8692 21.9125 12.2057 19.7471 12.2057H16.1388L20.2809 0.882212C20.5941 0.882212 20.8769 0.85022 21.1901 0.85022C32.3603 0.85022 41.3955 9.88537 41.3955 21.0555C41.3955 32.2257 32.3603 41.2609 21.1901 41.2609V41.2592ZM33.4261 14.8744H30.1933L25.6774 27.2333H28.9085L33.4261 14.8744Z" fill="#414141"/>
</svg>
