<svg width="176" height="28" viewBox="0 0 176 28" fill="none" xmlns="http://www.w3.org/2000/svg">
<path d="M145.993 1.45757L146.331 21.028H146.161L140.445 1.45757H131.028V26.1077H137.249L136.913 5.87169H137.082L143.219 26.1077H152.216V1.45757H145.993ZM27.5244 1.45757L22.8161 26.3584H29.6269L33.0741 3.7064H33.2421L36.6056 26.3577H43.332L38.7074 1.45757H27.5244ZM65.5286 1.45757L62.4181 20.4452H62.2493L59.1389 1.45757H48.881L48.3763 26.3584H54.6823L54.8511 3.95567H54.9346L59.1382 26.3577H65.5286L69.7329 3.95637H69.9016L70.0689 26.3577H76.3749L75.7865 1.45757H65.5286ZM12.2222 19.279C12.4738 19.8618 12.3903 20.6952 12.3058 21.1116C12.1379 21.9443 11.5495 22.7769 9.86736 22.7769C8.2703 22.7769 7.34524 21.8614 7.34524 20.5281V18.1136H0.618849V20.0289C0.618849 25.6086 5.07473 27.2739 9.78371 27.2739C14.324 27.2739 18.1072 25.6913 18.6962 21.6107C19.0322 19.4454 18.7799 18.0301 18.6962 17.5301C17.5188 12.284 7.93432 10.7851 7.26087 7.86987C7.17724 7.36993 7.17724 6.87078 7.26087 6.53725C7.4296 5.70458 8.01794 4.8719 9.53135 4.8719C11.0448 4.8719 11.8862 5.78744 11.8862 7.12075V8.61978H18.1915V6.87078C18.1915 1.45757 13.2309 0.624878 9.69935 0.624878C5.24347 0.624878 1.54392 2.12391 0.871208 6.12097C0.702474 7.20361 0.618849 8.2034 0.954833 9.45246C1.96427 14.6157 10.9619 16.1146 12.2222 19.279ZM94.0326 19.279C94.2843 19.8625 94.1999 20.6116 94.1163 21.1116C93.9476 21.9443 93.3592 22.7769 91.6778 22.7769C90.08 22.7769 89.1556 21.8614 89.1556 20.5281V18.1136H82.4286V20.0289C82.4286 25.525 86.8008 27.1911 91.5098 27.1911C96.0501 27.1911 99.7491 25.6921 100.338 21.5279C100.674 19.3626 100.423 18.0301 100.338 17.4473C99.3294 12.284 89.8277 10.7014 89.1556 7.87057C89.0713 7.37072 89.0713 6.87078 89.1556 6.53725C89.3236 5.70458 89.912 4.8719 91.4255 4.8719C92.8545 4.8719 93.7802 5.78744 93.7802 7.12075V8.61978H100.001V6.87078C100.001 1.45757 95.125 0.624878 91.5942 0.624878C87.1376 0.624878 83.5216 2.04035 82.8496 6.12097C82.6809 7.20361 82.6809 8.2034 82.9333 9.45246C83.9427 14.6157 92.7708 16.0311 94.0326 19.279ZM115.221 22.6105C116.987 22.6105 117.49 21.4443 117.658 20.7781C117.742 20.5289 117.742 20.1118 117.742 19.8625V1.45757H124.133V19.3626C124.133 19.8625 124.133 20.7781 124.049 21.028C123.628 25.6921 119.929 27.1911 115.304 27.1911C110.68 27.1911 106.981 25.6921 106.56 21.028C106.56 20.7781 106.476 19.8625 106.476 19.3626V1.45757H112.865V19.8625C112.865 20.1954 112.865 20.5281 112.95 20.7781C112.95 21.4443 113.454 22.6105 115.221 22.6105ZM167.686 22.3606C169.536 22.3606 170.125 21.1944 170.292 20.5281C170.377 20.2789 170.377 19.8618 170.377 19.6126V16.0311H167.771V12.3669H176.683V19.0299C176.683 19.529 176.683 19.8618 176.599 20.6952C176.178 25.2751 172.227 26.8575 167.771 26.8575C163.314 26.8575 159.362 25.2751 158.943 20.6952C158.858 19.8618 158.858 19.529 158.858 19.0292V8.53692C158.858 8.11984 158.943 7.28717 158.943 6.87078C159.53 2.20667 163.314 0.707717 167.771 0.707717C172.227 0.707717 176.094 2.20667 176.599 6.87078C176.683 7.6199 176.683 8.53623 176.683 8.53623V9.3689H170.377V7.95343C170.377 7.95343 170.377 7.37003 170.292 7.0372C170.209 6.45449 169.704 5.20543 167.771 5.20543C165.921 5.20543 165.416 6.37094 165.248 7.0372C165.164 7.37003 165.164 7.78701 165.164 8.2034V19.6126C165.164 19.9454 165.164 20.2781 165.248 20.5281C165.248 21.1944 165.921 22.3606 167.686 22.3606Z" fill="#414141"/>
</svg>
