<svg width="70" height="70" viewBox="0 0 70 70" fill="none" xmlns="http://www.w3.org/2000/svg">
<g opacity="0.2">
<mask id="path-1-inside-1_15_3101" fill="white">
<path d="M69.6228 34.5337C69.6228 53.5791 54.1834 69.0185 35.138 69.0185C16.0926 69.0185 0.653198 53.5791 0.653198 34.5337C0.653198 15.4882 16.0926 0.0488586 35.138 0.0488586C54.1834 0.0488586 69.6228 15.4882 69.6228 34.5337ZM5.13622 34.5337C5.13622 51.1032 18.5685 64.5354 35.138 64.5354C51.7075 64.5354 65.1398 51.1032 65.1398 34.5337C65.1398 17.9641 51.7075 4.53188 35.138 4.53188C18.5685 4.53188 5.13622 17.9641 5.13622 34.5337Z"/>
</mask>
<path d="M69.6228 34.5337C69.6228 53.5791 54.1834 69.0185 35.138 69.0185C16.0926 69.0185 0.653198 53.5791 0.653198 34.5337C0.653198 15.4882 16.0926 0.0488586 35.138 0.0488586C54.1834 0.0488586 69.6228 15.4882 69.6228 34.5337ZM5.13622 34.5337C5.13622 51.1032 18.5685 64.5354 35.138 64.5354C51.7075 64.5354 65.1398 51.1032 65.1398 34.5337C65.1398 17.9641 51.7075 4.53188 35.138 4.53188C18.5685 4.53188 5.13622 17.9641 5.13622 34.5337Z" stroke="url(#paint0_linear_15_3101)" stroke-width="8.48857" stroke-linecap="round" mask="url(#path-1-inside-1_15_3101)"/>
</g>
<mask id="path-2-inside-2_15_3101" fill="white">
<path d="M67.3813 34.5337C68.6192 34.5337 69.6304 35.5384 69.55 36.7737C69.1573 42.8063 67.1842 48.6441 63.8111 53.6924C60.0218 59.3634 54.636 63.7834 48.3348 66.3935C42.0335 69.0035 35.0997 69.6865 28.4103 68.3559C21.721 67.0252 15.5763 63.7409 10.7536 58.9181C5.93078 54.0953 2.64642 47.9507 1.31581 41.2613C-0.0147896 34.5719 0.668125 27.6382 3.2782 21.3369C5.88827 15.0356 10.3083 9.64983 15.9793 5.8606C21.0276 2.48742 26.8654 0.51431 32.8979 0.121673C34.1333 0.0412696 35.138 1.05242 35.138 2.29037C35.138 3.52832 34.133 4.52317 32.8985 4.61557C27.7535 5.00065 22.7808 6.70764 18.4699 9.58809C13.5361 12.8847 9.69074 17.5704 7.41997 23.0525C5.14921 28.5346 4.55507 34.5669 5.7127 40.3867C6.87032 46.2065 9.72772 51.5523 13.9235 55.7481C18.1194 59.9439 23.4652 62.8013 29.2849 63.959C35.1047 65.1166 41.1371 64.5225 46.6192 62.2517C52.1013 59.9809 56.7869 56.1355 60.0836 51.2018C62.964 46.8908 64.671 41.9182 65.0561 36.7731C65.1485 35.5386 66.1433 34.5337 67.3813 34.5337Z"/>
</mask>
<path d="M67.3813 34.5337C68.6192 34.5337 69.6304 35.5384 69.55 36.7737C69.1573 42.8063 67.1842 48.6441 63.8111 53.6924C60.0218 59.3634 54.636 63.7834 48.3348 66.3935C42.0335 69.0035 35.0997 69.6865 28.4103 68.3559C21.721 67.0252 15.5763 63.7409 10.7536 58.9181C5.93078 54.0953 2.64642 47.9507 1.31581 41.2613C-0.0147896 34.5719 0.668125 27.6382 3.2782 21.3369C5.88827 15.0356 10.3083 9.64983 15.9793 5.8606C21.0276 2.48742 26.8654 0.51431 32.8979 0.121673C34.1333 0.0412696 35.138 1.05242 35.138 2.29037C35.138 3.52832 34.133 4.52317 32.8985 4.61557C27.7535 5.00065 22.7808 6.70764 18.4699 9.58809C13.5361 12.8847 9.69074 17.5704 7.41997 23.0525C5.14921 28.5346 4.55507 34.5669 5.7127 40.3867C6.87032 46.2065 9.72772 51.5523 13.9235 55.7481C18.1194 59.9439 23.4652 62.8013 29.2849 63.959C35.1047 65.1166 41.1371 64.5225 46.6192 62.2517C52.1013 59.9809 56.7869 56.1355 60.0836 51.2018C62.964 46.8908 64.671 41.9182 65.0561 36.7731C65.1485 35.5386 66.1433 34.5337 67.3813 34.5337Z" stroke="url(#paint1_linear_15_3101)" stroke-width="8.48857" stroke-linecap="round" mask="url(#path-2-inside-2_15_3101)"/>
<path d="M21.4826 41.7919C20.7995 41.7872 20.1326 41.6687 19.482 41.4364C18.8314 41.1994 18.2458 40.816 17.7253 40.2862C17.2049 39.7518 16.7913 39.0431 16.4845 38.1601C16.1778 37.2725 16.0268 36.1734 16.0314 34.8629C16.0314 33.6407 16.1616 32.5509 16.4218 31.5936C16.682 30.6363 17.0561 29.8277 17.5441 29.1677C18.0321 28.5032 18.6199 27.9967 19.3077 27.6481C20.0002 27.2996 20.7739 27.1253 21.629 27.1253C22.5259 27.1253 23.3206 27.3019 24.013 27.6551C24.7101 28.0083 25.2724 28.4916 25.7 29.105C26.1275 29.7138 26.3924 30.4016 26.4946 31.1684H23.9503C23.8202 30.62 23.5529 30.1832 23.1486 29.8579C22.749 29.5279 22.2424 29.3629 21.629 29.3629C20.6391 29.3629 19.877 29.7928 19.3426 30.6525C18.8128 31.5123 18.5456 32.6927 18.5409 34.1937H18.6385C18.8662 33.7848 19.1613 33.4339 19.5238 33.1411C19.8863 32.8483 20.2953 32.6229 20.7507 32.4649C21.2108 32.3023 21.6964 32.221 22.2076 32.221C23.0441 32.221 23.7946 32.4208 24.4592 32.8205C25.1284 33.2201 25.6581 33.7708 26.0485 34.4725C26.4389 35.1696 26.6317 35.9689 26.6271 36.8705C26.6317 37.8092 26.418 38.6527 25.9858 39.4009C25.5536 40.1445 24.9518 40.73 24.1803 41.1575C23.4089 41.5851 22.5096 41.7965 21.4826 41.7919ZM21.4687 39.7006C21.9752 39.7006 22.4283 39.5775 22.828 39.3312C23.2276 39.0849 23.5437 38.7526 23.776 38.3344C24.0084 37.9161 24.1222 37.4468 24.1176 36.9263C24.1222 36.4151 24.0107 35.9527 23.783 35.5391C23.5599 35.1255 23.2509 34.7978 22.8559 34.5562C22.4609 34.3145 22.0101 34.1937 21.5035 34.1937C21.1271 34.1937 20.7762 34.2657 20.4509 34.4098C20.1256 34.5539 19.8421 34.7537 19.6005 35.0093C19.3588 35.2602 19.1683 35.553 19.0289 35.8876C18.8941 36.2176 18.8244 36.5708 18.8198 36.9472C18.8244 37.4444 18.9406 37.9022 19.1683 38.3204C19.396 38.7387 19.7097 39.0733 20.1094 39.3242C20.509 39.5752 20.9621 39.7006 21.4687 39.7006ZM28.5906 41.5967V39.7285L33.5469 34.8699C34.0209 34.3912 34.4159 33.966 34.7319 33.5942C35.0479 33.2224 35.2849 32.8623 35.4429 32.5137C35.6009 32.1652 35.6799 31.7934 35.6799 31.3984C35.6799 30.9476 35.5777 30.5619 35.3732 30.2413C35.1687 29.9159 34.8876 29.665 34.5297 29.4884C34.1719 29.3118 33.7653 29.2235 33.3099 29.2235C32.8405 29.2235 32.4292 29.3211 32.076 29.5163C31.7228 29.7068 31.4486 29.9787 31.2535 30.3319C31.0629 30.6851 30.9677 31.1056 30.9677 31.5936H28.507C28.507 30.6874 28.7138 29.8997 29.1274 29.2305C29.541 28.5613 30.1103 28.0431 30.8352 27.676C31.5648 27.3089 32.4013 27.1253 33.3447 27.1253C34.302 27.1253 35.1432 27.3042 35.8681 27.6621C36.5931 28.0199 37.1554 28.5102 37.5551 29.1329C37.9594 29.7556 38.1615 30.4666 38.1615 31.266C38.1615 31.8004 38.0593 32.3255 37.8548 32.8414C37.6504 33.3572 37.2902 33.9288 36.7744 34.5562C36.2632 35.1836 35.5452 35.9434 34.6204 36.8356L32.1597 39.3382V39.4358H38.3776V41.5967H28.5906ZM48.023 38.9199V38.1671C48.023 37.6141 48.1392 37.1052 48.3716 36.6405C48.6086 36.1757 48.9525 35.8016 49.4032 35.5182C49.854 35.2347 50.4001 35.0929 51.0414 35.0929C51.7013 35.0929 52.2543 35.2347 52.7004 35.5182C53.1466 35.797 53.4835 36.1688 53.7112 36.6335C53.9436 37.0982 54.0597 37.6094 54.0597 38.1671V38.9199C54.0597 39.4729 53.9436 39.9818 53.7112 40.4465C53.4788 40.9112 53.1373 41.2853 52.6865 41.5688C52.2404 41.8523 51.692 41.994 51.0414 41.994C50.3908 41.994 49.8401 41.8523 49.3893 41.5688C48.9385 41.2853 48.5969 40.9112 48.3646 40.4465C48.1369 39.9818 48.023 39.4729 48.023 38.9199ZM49.8424 38.1671V38.9199C49.8424 39.287 49.9307 39.624 50.1073 39.9307C50.2839 40.2374 50.5952 40.3908 51.0414 40.3908C51.4922 40.3908 51.8012 40.2397 51.9685 39.9377C52.1404 39.6309 52.2264 39.2917 52.2264 38.9199V38.1671C52.2264 37.7953 52.1451 37.456 51.9824 37.1493C51.8198 36.838 51.5061 36.6823 51.0414 36.6823C50.6045 36.6823 50.2955 36.838 50.1143 37.1493C49.933 37.456 49.8424 37.7953 49.8424 38.1671ZM40.7664 30.7501V29.9973C40.7664 29.4396 40.8849 28.9284 41.1219 28.4637C41.3589 27.999 41.7028 27.6272 42.1536 27.3484C42.6044 27.0649 43.1504 26.9231 43.7917 26.9231C44.447 26.9231 44.9977 27.0649 45.4438 27.3484C45.8946 27.6272 46.2338 27.999 46.4616 28.4637C46.6893 28.9284 46.8031 29.4396 46.8031 29.9973V30.7501C46.8031 31.3078 46.6869 31.819 46.4546 32.2837C46.2269 32.7438 45.8876 33.1132 45.4368 33.3921C44.9861 33.6709 44.4377 33.8103 43.7917 33.8103C43.1365 33.8103 42.5835 33.6709 42.1327 33.3921C41.6865 33.1132 41.3473 32.7415 41.1149 32.2767C40.8826 31.812 40.7664 31.3031 40.7664 30.7501ZM42.5997 29.9973V30.7501C42.5997 31.1219 42.6857 31.4611 42.8576 31.7679C43.0342 32.0699 43.3456 32.221 43.7917 32.221C44.2379 32.221 44.5446 32.0699 44.7119 31.7679C44.8838 31.4611 44.9698 31.1219 44.9698 30.7501V29.9973C44.9698 29.6255 44.8885 29.2863 44.7258 28.9795C44.5632 28.6682 44.2518 28.5125 43.7917 28.5125C43.3502 28.5125 43.0412 28.6682 42.8646 28.9795C42.688 29.2909 42.5997 29.6301 42.5997 29.9973ZM41.5611 41.5967L51.376 27.3205H53.1187L43.3038 41.5967H41.5611Z" fill="black"/>
<defs>
<linearGradient id="paint0_linear_15_3101" x1="59.3773" y1="9.29478" x2="12.2731" y2="60.1474" gradientUnits="userSpaceOnUse">
<stop stop-color="#0F90A1"/>
<stop offset="1" stop-color="#82FF9E"/>
</linearGradient>
<linearGradient id="paint1_linear_15_3101" x1="59.3773" y1="9.29478" x2="12.2731" y2="60.1474" gradientUnits="userSpaceOnUse">
<stop stop-color="#0F90A1"/>
<stop offset="1" stop-color="#82FF9E"/>
</linearGradient>
</defs>
</svg>
