<svg width="85" height="85" viewBox="0 0 85 85" fill="none" xmlns="http://www.w3.org/2000/svg">
<g opacity="0.2">
<mask id="path-1-inside-1_15_3162" fill="white">
<path d="M84.1653 42.3744C84.1653 65.5306 65.3934 84.3024 42.2372 84.3024C19.081 84.3024 0.309143 65.5306 0.309143 42.3744C0.309143 19.2182 19.081 0.44632 42.2372 0.44632C65.3934 0.44632 84.1653 19.2182 84.1653 42.3744ZM5.75979 42.3744C5.75979 62.5203 22.0913 78.8518 42.2372 78.8518C62.3831 78.8518 78.7146 62.5203 78.7146 42.3744C78.7146 22.2285 62.3831 5.89697 42.2372 5.89697C22.0913 5.89697 5.75979 22.2285 5.75979 42.3744Z"/>
</mask>
<path d="M84.1653 42.3744C84.1653 65.5306 65.3934 84.3024 42.2372 84.3024C19.081 84.3024 0.309143 65.5306 0.309143 42.3744C0.309143 19.2182 19.081 0.44632 42.2372 0.44632C65.3934 0.44632 84.1653 19.2182 84.1653 42.3744ZM5.75979 42.3744C5.75979 62.5203 22.0913 78.8518 42.2372 78.8518C62.3831 78.8518 78.7146 62.5203 78.7146 42.3744C78.7146 22.2285 62.3831 5.89697 42.2372 5.89697C22.0913 5.89697 5.75979 22.2285 5.75979 42.3744Z" stroke="url(#paint0_linear_15_3162)" stroke-width="10.3208" stroke-linecap="round" mask="url(#path-1-inside-1_15_3162)"/>
</g>
<mask id="path-2-inside-2_15_3162" fill="white">
<path d="M81.4399 42.3744C82.9451 42.3744 84.1745 43.596 84.0767 45.0979C83.5993 52.4326 81.2003 59.5304 77.0991 65.6684C72.492 72.5634 65.9437 77.9374 58.2824 81.1109C50.621 84.2843 42.1907 85.1146 34.0574 83.4968C25.9242 81.879 18.4533 77.8857 12.5896 72.022C6.72584 66.1582 2.73258 58.6874 1.11478 50.5541C-0.503024 42.4209 0.327291 33.9906 3.50073 26.3292C6.67416 18.6679 12.0482 12.1196 18.9432 7.51247C25.0812 3.41123 32.179 1.01224 39.5137 0.534851C41.0156 0.437093 42.2372 1.66649 42.2372 3.17164C42.2372 4.6768 41.0153 5.88637 39.5144 5.99871C33.2588 6.46692 27.2128 8.54234 21.9714 12.0445C15.9728 16.0527 11.2974 21.7497 8.53647 28.4151C5.77558 35.0805 5.05321 42.4148 6.4607 49.4908C7.86818 56.5667 11.3423 63.0663 16.4438 68.1678C21.5452 73.2693 28.0449 76.7434 35.1208 78.1509C42.1967 79.5584 49.5311 78.836 56.1965 76.0751C62.8619 73.3142 68.5589 68.6388 72.5671 62.6401C76.0692 57.3988 78.1447 51.3528 78.6129 45.0972C78.7252 43.5963 79.9348 42.3744 81.4399 42.3744Z"/>
</mask>
<path d="M81.4399 42.3744C82.9451 42.3744 84.1745 43.596 84.0767 45.0979C83.5993 52.4326 81.2003 59.5304 77.0991 65.6684C72.492 72.5634 65.9437 77.9374 58.2824 81.1109C50.621 84.2843 42.1907 85.1146 34.0574 83.4968C25.9242 81.879 18.4533 77.8857 12.5896 72.022C6.72584 66.1582 2.73258 58.6874 1.11478 50.5541C-0.503024 42.4209 0.327291 33.9906 3.50073 26.3292C6.67416 18.6679 12.0482 12.1196 18.9432 7.51247C25.0812 3.41123 32.179 1.01224 39.5137 0.534851C41.0156 0.437093 42.2372 1.66649 42.2372 3.17164C42.2372 4.6768 41.0153 5.88637 39.5144 5.99871C33.2588 6.46692 27.2128 8.54234 21.9714 12.0445C15.9728 16.0527 11.2974 21.7497 8.53647 28.4151C5.77558 35.0805 5.05321 42.4148 6.4607 49.4908C7.86818 56.5667 11.3423 63.0663 16.4438 68.1678C21.5452 73.2693 28.0449 76.7434 35.1208 78.1509C42.1967 79.5584 49.5311 78.836 56.1965 76.0751C62.8619 73.3142 68.5589 68.6388 72.5671 62.6401C76.0692 57.3988 78.1447 51.3528 78.6129 45.0972C78.7252 43.5963 79.9348 42.3744 81.4399 42.3744Z" stroke="url(#paint1_linear_15_3162)" stroke-width="10.3208" stroke-linecap="round" mask="url(#path-2-inside-2_15_3162)"/>
<path d="M25.6359 51.0987C24.8053 51.093 23.9945 50.9489 23.2035 50.6664C22.4124 50.3783 21.7005 49.9121 21.0677 49.268C20.4348 48.6182 19.932 47.7565 19.559 46.683C19.1861 45.6038 19.0025 44.2675 19.0081 42.6741C19.0081 41.1881 19.1664 39.8631 19.4828 38.6992C19.7992 37.5352 20.254 36.552 20.8473 35.7497C21.4406 34.9417 22.1553 34.3258 22.9916 33.9021C23.8335 33.4783 24.7742 33.2664 25.8139 33.2664C26.9044 33.2664 27.8706 33.4811 28.7125 33.9105C29.56 34.34 30.2437 34.9276 30.7635 35.6734C31.2834 36.4136 31.6054 37.2499 31.7297 38.1822H28.6362C28.478 37.5154 28.1531 36.9843 27.6615 36.5888C27.1756 36.1876 26.5597 35.987 25.8139 35.987C24.6104 35.987 23.6837 36.5097 23.034 37.555C22.3898 38.6003 22.0649 40.0354 22.0593 41.8605H22.1779C22.4548 41.3633 22.8136 40.9367 23.2543 40.5807C23.695 40.2247 24.1923 39.9507 24.746 39.7586C25.3054 39.5608 25.8958 39.4619 26.5174 39.4619C27.5344 39.4619 28.4469 39.7049 29.2549 40.1908C30.0686 40.6767 30.7127 41.3463 31.1873 42.1995C31.6619 43.047 31.8964 44.0189 31.8908 45.115C31.8964 46.2564 31.6365 47.2819 31.111 48.1916C30.5856 49.0956 29.8538 49.8076 28.9159 50.3274C27.978 50.8472 26.8846 51.1043 25.6359 51.0987ZM25.619 48.556C26.2348 48.556 26.7857 48.4063 27.2717 48.1069C27.7576 47.8074 28.1418 47.4034 28.4243 46.8949C28.7068 46.3863 28.8453 45.8157 28.8396 45.1828C28.8453 44.5613 28.7097 43.9991 28.4328 43.4962C28.1616 42.9934 27.7858 42.595 27.3056 42.3012C26.8253 42.0074 26.2772 41.8605 25.6613 41.8605C25.2037 41.8605 24.7771 41.9481 24.3816 42.1232C23.986 42.2984 23.6414 42.5413 23.3476 42.8521C23.0537 43.1572 22.8221 43.5132 22.6526 43.92C22.4887 44.3212 22.404 44.7506 22.3983 45.2083C22.404 45.8128 22.5452 46.3694 22.8221 46.8779C23.0989 47.3864 23.4803 47.7933 23.9663 48.0984C24.4522 48.4035 25.0031 48.556 25.619 48.556ZM34.2781 50.8614V48.5899L40.3041 42.6826C40.8805 42.1006 41.3607 41.5836 41.7449 41.1316C42.1292 40.6796 42.4173 40.2417 42.6094 39.8179C42.8015 39.3941 42.8976 38.9421 42.8976 38.4618C42.8976 37.9138 42.7733 37.4448 42.5247 37.0549C42.2761 36.6594 41.9342 36.3543 41.4992 36.1396C41.0641 35.9249 40.5697 35.8175 40.016 35.8175C39.4453 35.8175 38.9452 35.9362 38.5158 36.1735C38.0864 36.4051 37.753 36.7357 37.5157 37.1651C37.2841 37.5945 37.1682 38.1059 37.1682 38.6992H34.1764C34.1764 37.5973 34.4278 36.6396 34.9307 35.826C35.4336 35.0123 36.1258 34.3823 37.0072 33.936C37.8943 33.4896 38.9113 33.2664 40.0583 33.2664C41.2223 33.2664 42.245 33.484 43.1264 33.919C44.0079 34.3541 44.6916 34.9502 45.1775 35.7073C45.6691 36.4645 45.9148 37.329 45.9148 38.3008C45.9148 38.9506 45.7905 39.5891 45.5419 40.2162C45.2933 40.8434 44.8554 41.5384 44.2282 42.3012C43.6067 43.064 42.7337 43.9878 41.6093 45.0727L38.6175 48.1153V48.234H46.1776V50.8614H34.2781ZM57.9048 47.6068V46.6915C57.9048 46.0191 58.0461 45.4004 58.3286 44.8353C58.6168 44.2703 59.0349 43.8155 59.583 43.4708C60.131 43.1261 60.7949 42.9538 61.5747 42.9538C62.377 42.9538 63.0494 43.1261 63.5918 43.4708C64.1343 43.8098 64.5439 44.2618 64.8208 44.8269C65.1033 45.3919 65.2445 46.0134 65.2445 46.6915V47.6068C65.2445 48.2792 65.1033 48.8979 64.8208 49.4629C64.5383 50.0279 64.123 50.4828 63.5749 50.8275C63.0325 51.1721 62.3657 51.3445 61.5747 51.3445C60.7836 51.3445 60.1141 51.1721 59.566 50.8275C59.0179 50.4828 58.6026 50.0279 58.3201 49.4629C58.0433 48.8979 57.9048 48.2792 57.9048 47.6068ZM60.1169 46.6915V47.6068C60.1169 48.0532 60.2243 48.4628 60.439 48.8357C60.6537 49.2087 61.0323 49.3951 61.5747 49.3951C62.1228 49.3951 62.4985 49.2115 62.7019 48.8442C62.911 48.4713 63.0155 48.0588 63.0155 47.6068V46.6915C63.0155 46.2394 62.9166 45.827 62.7189 45.454C62.5211 45.0755 62.1397 44.8862 61.5747 44.8862C61.0436 44.8862 60.6678 45.0755 60.4475 45.454C60.2271 45.827 60.1169 46.2394 60.1169 46.6915ZM49.0819 37.6736V36.7583C49.0819 36.0803 49.226 35.4587 49.5142 34.8937C49.8023 34.3287 50.2205 33.8766 50.7685 33.5376C51.3166 33.193 51.9805 33.0206 52.7603 33.0206C53.557 33.0206 54.2265 33.193 54.7689 33.5376C55.317 33.8766 55.7295 34.3287 56.0063 34.8937C56.2832 35.4587 56.4216 36.0803 56.4216 36.7583V37.6736C56.4216 38.3517 56.2804 38.9732 55.9979 39.5382C55.721 40.0976 55.3085 40.5468 54.7605 40.8858C54.2124 41.2248 53.5457 41.3943 52.7603 41.3943C51.9636 41.3943 51.2912 41.2248 50.7431 40.8858C50.2007 40.5468 49.7882 40.0948 49.5057 39.5297C49.2232 38.9647 49.0819 38.346 49.0819 37.6736ZM51.311 36.7583V37.6736C51.311 38.1256 51.4155 38.5381 51.6246 38.911C51.8393 39.2783 52.2178 39.4619 52.7603 39.4619C53.3027 39.4619 53.6756 39.2783 53.879 38.911C54.0881 38.5381 54.1926 38.1256 54.1926 37.6736V36.7583C54.1926 36.3063 54.0937 35.8938 53.896 35.5209C53.6982 35.1423 53.3196 34.953 52.7603 34.953C52.2235 34.953 51.8477 35.1423 51.633 35.5209C51.4183 35.8994 51.311 36.3119 51.311 36.7583ZM50.0481 50.8614L61.9815 33.5037H64.1004L52.167 50.8614H50.0481Z" fill="white"/>
<defs>
<linearGradient id="paint0_linear_15_3162" x1="71.7084" y1="11.6879" x2="14.4371" y2="73.5166" gradientUnits="userSpaceOnUse">
<stop stop-color="#0F90A1"/>
<stop offset="1" stop-color="#82FF9E"/>
</linearGradient>
<linearGradient id="paint1_linear_15_3162" x1="71.7084" y1="11.6879" x2="14.4371" y2="73.5166" gradientUnits="userSpaceOnUse">
<stop stop-color="#0F90A1"/>
<stop offset="1" stop-color="#82FF9E"/>
</linearGradient>
</defs>
</svg>
