<svg width="61" height="42" viewBox="0 0 61 42" fill="none" xmlns="http://www.w3.org/2000/svg">
<path d="M30.5319 0.848022C13.5481 0.848022 0.458801 9.3991 0.458801 21.0534C0.458801 32.7076 13.5506 41.2587 30.5319 41.2587C47.5131 41.2587 60.6049 32.7076 60.6049 21.0534C60.6049 9.3991 47.5156 0.848022 30.5319 0.848022ZM48.9115 10.3633C48.9115 13.0402 44.5885 15.1048 37.6642 15.9301C37.0126 9.53542 35.1456 5.32432 32.7447 3.75291C40.1327 4.20896 48.909 6.79412 48.909 10.3633H48.9115ZM30.5319 31.9616C28.126 31.9616 26.1563 28.2437 26.0009 21.0831C27.4469 21.1996 28.9581 21.2616 30.5319 21.2616C32.1056 21.2616 33.6143 21.1996 35.0603 21.0831C34.9074 28.2461 32.9377 31.9616 30.5319 31.9616ZM30.5319 16.3267C29.0533 16.3267 27.6373 16.2796 26.2966 16.1929C26.9506 11.9099 28.6022 8.38537 30.5319 8.38537C32.4615 8.38537 34.1106 11.9099 34.7646 16.1929C33.4239 16.2772 32.0104 16.3267 30.5319 16.3267ZM28.3214 3.74795C25.9257 5.31689 24.0461 9.53046 23.3995 15.9301C16.4752 15.1048 12.1497 13.0402 12.1497 10.3633C12.1497 6.79412 20.931 4.19161 28.3214 3.74795ZM5.56371 20.2602C5.55737 17.4338 6.47903 14.6818 8.19009 12.418C8.86673 16.2524 14.5105 19.5588 23.1564 20.7708V21.0534C23.1564 30.4025 25.3593 36.428 28.3866 38.3291C15.588 37.5334 5.56371 29.7036 5.56371 20.2602ZM32.687 38.3291C35.712 36.428 37.9172 30.4025 37.9172 21.0534V20.7683C46.5557 19.5588 52.2121 16.2424 52.8837 12.4155C54.5969 14.6793 55.5196 17.4325 55.5125 20.2602C55.5025 29.7036 45.4681 37.5334 32.6846 38.3291H32.687Z" fill="#414141"/>
</svg>
